<svg xmlns="http://www.w3.org/2000/svg" viewBox="0 0 512 512">
  <defs>
    <linearGradient id="sk2" x1="0" y1="0" x2="0" y2="1">
      <stop offset="0%" stop-color="#E8F0FE"/>
      <stop offset="100%" stop-color="#F5F0E6"/>
    </linearGradient>
    <linearGradient id="g2" x1="0" y1="1" x2="0" y2="0">
      <stop offset="0%" stop-color="#1F4D3A"/>
      <stop offset="100%" stop-color="#2E6B45"/>
    </linearGradient>
    <path id="text-path" d="M 60,256 A 196,196 0 1,1 452,256 A 196,196 0 1,1 60,256" fill="none"/>
  </defs>

  <!-- Ring -->
  <circle cx="256" cy="256" r="240" fill="#2A6B7A" opacity="0.06"/>
  <circle cx="256" cy="256" r="230" fill="none" stroke="#2A6B7A" stroke-width="6"/>
  <circle cx="256" cy="256" r="220" fill="#F5F0E6"/>
  <circle cx="256" cy="256" r="218" fill="none" stroke="#2A6B7A" stroke-width="1.5" opacity="0.15"/>

  <!-- Langit -->
  <ellipse cx="256" cy="180" rx="130" ry="90" fill="url(#sk2)"/>

  <!-- Matahari -->
  <circle cx="330" cy="145" r="25" fill="#F4A261"/>
  <circle cx="330" cy="145" r="30" fill="none" stroke="#F4A261" stroke-width="2.5" opacity="0.35"/>

  <!-- Gunung utama -->
  <polygon points="120,290 256,135 392,290" fill="url(#g2)"/>
  <polygon points="256,135 240,160 256,150 272,160" fill="#FFFFFF" opacity="0.9"/>

  <!-- Trail -->
  <polyline points="310,280 295,260 315,245 300,225 318,205 305,185 288,168" fill="none" stroke="#E07A2F" stroke-width="4.5" stroke-linecap="round" stroke-linejoin="round"/>
  <polygon points="288,168 308,175 288,182" fill="#E07A2F"/>

  <!-- Pinus -->
  <polygon points="155,290 145,265 156,257 148,237 160,230 153,210 163,206 155,290" fill="#1F4D3A"/>
  <polygon points="360,290 351,268 362,260 354,242 365,235 358,215 368,210 360,290" fill="#2E6B45"/>

  <!-- Ground -->
  <ellipse cx="256" cy="295" rx="160" ry="12" fill="#2E6B45" opacity="0.2"/>

  <!-- Teks melengkung -->
  <text font-family="'Segoe UI', 'Helvetica Neue', Arial, sans-serif" font-size="32" font-weight="700" letter-spacing="8" fill="#1F4D3A">
    <textPath href="#text-path" startOffset="0%">BAKUDAPA ADVENTURE</textPath>
  </text>
</svg>